# Blender v2.79 (sub 0) OBJ File: ''
# www.blender.org
mtllib cube.mtl
o Cube
v 0.803026 -0.627164 -1.013589
v 0.803026 -0.627164 0.986411
v -1.196975 -0.627164 0.986411
v -1.196974 -0.627164 -1.013589
v 0.803026 1.372836 -1.013588
v 0.803025 1.372836 0.986412
v -1.196975 1.372836 0.986411
v -1.196974 1.372836 -1.013589
vn 0.0000 -1.0000 0.0000
vn 0.0000 1.0000 0.0000
vn 1.0000 0.0000 0.0000
vn -0.0000 -0.0000 1.0000
vn -1.0000 -0.0000 -0.0000
vn 0.0000 0.0000 -1.0000
usemtl Material
s off
f 1//1 2//1 3//1 4//1
f 5//2 8//2 7//2 6//2
f 1//3 5//3 6//3 2//3
f 2//4 6//4 7//4 3//4
f 3//5 7//5 8//5 4//5
f 5//6 1//6 4//6 8//6
